<?xml version="1.0" encoding="UTF-8"?>
<svg id="Layer_1" xmlns="http://www.w3.org/2000/svg" version="1.1" viewBox="0 0 1000 1000">
  <!-- Generator: Adobe Illustrator 30.4.0, SVG Export Plug-In . SVG Version: 2.1.4 Build 226)  -->
  <defs>
    <style>
      .st0 {
        fill: #fff;
      }

      .st1 {
        fill: #ab8965;
      }
    </style>
  </defs>
  <rect class="st1" y="0" width="1000" height="1000" rx="288.8" ry="288.8"/>
  <g>
    <g id="IfDUHU">
      <path class="st0" d="M327.5,600.2c0,.2,0,.4-.2.6-.2-.2-.4-.3-.6-.4.2-.1.5-.2.8-.2Z"/>
    </g>
    <g>
      <g>
        <path class="st0" d="M444.4,493.9c-.8,0-1.2.5-1.2,1.3,0,1.6,2.4,4.5,2.4,10.8,0,14-12.3,25.9-29.8,25.9s-34.8-18.2-34.8-40.3,1.1-14.1,2.8-19.2h61.3l.4-.8c-6.1-12.7-17.6-19.9-38-19.9-29.8,0-50.1,20.1-50.1,50s6.3,28.8,16.9,37c.8-.3,1.6-.4,2.3-.4,2,0,3.9.9,4.9,2.5,1.6-1.5,3.8-2.5,5.9-2.5s4,1,5.1,2.7c1.3,2,1.1,4.3.6,6,1.3.2,2.7.4,4.1.6,2.6-1.8,5.7-3,9.3-3.1,2.2,0,4.2.8,5.8,2.1,0,0,.1.1.2.2,22.8-4.8,34.2-25.3,34.2-43.8s-.6-9.1-2.4-9.1ZM406.4,452.8c10,0,15.2,7.3,15.2,14.5s-1.4,4.1-5.2,4.1h-32.1c4.7-13,13.9-18.6,22.2-18.6Z"/>
        <path class="st0" d="M508.9,451.8c-10.7,0-20.2,10.4-23,28.8h-1c.5-5.6.6-10.8.6-14.5v-12.9c0-.7-.4-1-1-1-10.7.8-21.8,1-33.6,1s-.5.2-.5.5.2.5.5.5h1.3c7.4,0,8.8,3.1,8.8,12v65.2c0,8.8-2.1,14-8.5,14h-1.3c-.3,0-.5.2-.5.5s.2.5.5.5h47.4c.3,0,.5-.2.5-.5s-.2-.5-.5-.5h-1.2c-7.4,0-11.9-5.2-11.9-15v-33c0-25.2,6.4-29.4,9.3-29.4s3.4,1.5,5.1,3.3c2.1,2.3,4.7,5.1,10.2,5.1s11.6-5.4,11.6-12.3-6.1-12.5-12.8-12.5Z"/>
        <path class="st0" d="M556.8,518c0,0,.1,0,.2,0v-.5c-.1.1-.2.3-.2.4ZM553.3,515.8c-1.4,1.5-3.4,2.4-5.5,2.4s-3.1-.5-4.3-1.5c.1.4.1.8.1,1.3,0,1.4-.5,2.8-1.4,3.9-1.1,1.3-2.7,2.1-4.5,2.1s-1.3-.1-1.9-.3c-.1,0-.2,0-.4,0-.8,0-1.7.4-2.7,1.2v6.5c0,8.8-2.1,14-8.5,14h-1.4c-.3,0-.5.2-.5.5s.2.5.5.5h23.5c3-9.4,6.1-19,10.6-28.1,0-.1.1-.2.2-.3-1.4-.3-2.7-1.1-3.6-2.2ZM556.1,452.2c-10.7.8-21.6,1-33.4,1s-.5.2-.5.5.2.5.5.5h1.1c7.4,0,8.8,3.1,8.8,12v44.8c.6-.2,1.3-.4,1.9-.4.3,0,.8-.1,1.2-.1,2.2,0,4,.8,5.4,2-.1-.9,0-2,.2-3,.9-3.7,4.8-6.9,8.6-6.9s3.8.9,4.9,2.5c.7-.6,1.4-1.2,2.3-1.6v-50.3c0-.7-.4-1-1-1ZM543.2,412.1c-8.8,0-14.5,6.1-14.5,14.4s5.7,14.4,14.5,14.4,14.5-6.1,14.5-14.4-5.7-14.4-14.5-14.4Z"/>
        <path class="st0" d="M627.7,451.8c-13.7,0-22.7,7.5-25.4,18.8h-.9c.7-6.3,1.1-10.5,1.1-14.7v-53.9c0-.7-.4-1-1-1-10.7.8-21.6,1-33.4,1s-.5.2-.5.5.2.5.5.5h1.1c7.4,0,8.8,3.1,8.8,12v116.5c0,8.8-2.1,14-8.5,14h-1.4c-.3,0-.5.2-.5.5s0,.2.1.3c0,.1.2.2.4.2h39.9c1-.4,2.1-.8,3.2-1h-.2c-6.4,0-8.5-5.2-8.5-14v-54.3c0-8.9,4.1-17.8,13.6-17.8s11.5,6.7,11.5,16.2v55.9c0,8.4-1.9,13.5-7.7,14,1.1.2,2.2.6,3.2,1h17.6c3.3-9.5,7.3-19,11.4-25.6v-45.2c0-15.8-10.1-23.9-24.3-23.9Z"/>
        <path class="st0" d="M753.1,510c-.6-1.5-1.3-2.1-2-2.1s-1.1.6-1.1,1.3c0,2.1,3.8,5.1,3.8,15s-2.5,16.2-8.8,16.2-5.6-2.3-5.6-7.3v-48.6c0-19.2-12.4-32.7-36.7-32.7s-36.1,7.7-36.1,33.3,6,18.8,15.3,18.8,11.7-4.7,11.7-10.6-5.5-10.3-10.8-11.8c-6.1-1.6-9.3-3.9-9.3-10.8s8.7-15.1,18.8-15.1,22.6,9.5,22.6,27.2v22.1c-9.6,2.4-16.7,4.5-23.8,6.9-7.9,2.6-14.9,5.2-19.2,9.4,0,.7,0,1.4-.2,2.2-.6,3.1-2,6.8-4.2,11.2,1,7.9,6.8,13.1,16.1,13.1,17.3,0,28.1-15.4,31.4-30v11c0,13.5,8.2,19,18.5,19s21.4-9.9,21.4-25-1.3-11.7-1.7-12.8ZM714.9,512.6c0,1.9-.4,4.2-1.1,6.3-2,6.2-7.1,12.2-15.1,12.2s-8.3-3.2-8.3-9.2.7-6.6,1.9-9.2c7.1-2.4,15.5-4.7,22.6-6.7v6.7Z"/>
        <path class="st0" d="M849.2,545.4h-1.3c-6.4,0-8.5-5.2-8.5-14v-55.7c0-15.8-10.1-23.9-24.3-23.9s-22.5,7.5-25.5,18.8h-.9c.8-6.1,1.1-9.5,1.1-13.7v-3.6c0-.7-.4-1-1-1-10.6.8-21.6,1-33.4,1s-.5.2-.5.5.2.5.5.5h1.1c7.4,0,8.8,3.1,8.8,12v65.2c0,8.8-2.1,14-8.5,14h-1.4c-.3,0-.5.2-.5.5s.2.5.5.5h44.3c.3,0,.5-.2.5-.5s-.2-.5-.5-.5h-1.3c-6.4,0-8.5-5.2-8.5-14v-54.3c0-8.9,4.2-17.8,13.6-17.8s11.5,6.7,11.5,16.2v55.9c0,8.8-2.1,14-8.5,14h-1.3c-.3,0-.5.2-.5.5s.2.5.5.5h44.2c.3,0,.5-.2.5-.5s-.2-.5-.5-.5Z"/>
      </g>
      <g>
        <path class="st0" d="M287.8,412.5h-8.8c-.8,2-1.8,4-2.3,5.7-.2.6-.3,1.1-.4,1.6,0,.4,0,.9,0,1.3-.2,1.9,0,3.7.3,5.4.2,1.2.7,2.4,1.1,3.5,0,.3.3.7.4.9.2.7.6,1.4,1,2.1,0,0,.1,0,.1.1v-13.8h9.4c-.2-2.2-.5-4.5-.8-6.8ZM287.8,412.5h-8.8c-.8,2-1.8,4-2.3,5.7-.2.6-.3,1.1-.4,1.6,0,.4,0,.9,0,1.3-.2,1.9,0,3.7.3,5.4.2,1.2.7,2.4,1.1,3.5,0,.3.3.7.4.9.2.7.6,1.4,1,2.1,0,0,.1,0,.1.1v-13.8h9.4c-.2-2.2-.5-4.5-.8-6.8ZM287.8,412.5h-8.8c-.8,2-1.8,4-2.3,5.7-.2.6-.3,1.1-.4,1.6,0,.4,0,.9,0,1.3-.2,1.9,0,3.7.3,5.4.2,1.2.7,2.4,1.1,3.5,0,.3.3.7.4.9.2.7.6,1.4,1,2.1,0,0,.1,0,.1.1v-13.8h9.4c-.2-2.2-.5-4.5-.8-6.8ZM280,541.7c-.2-1.1-.5-2.3-.6-3.9-1.1,2.1-2.4,4.3-3.8,6.2-1.6,2.2-3.2,4.2-4.9,6,2.1,0,4.1,0,5.9.1h1.6c0-.1,0-.2.2-.3,1.1-1.7,2.1-3.6,3.1-5.7-.7-.7-1.1-1.5-1.4-2.5ZM251.1,412.5h-.6c-1.2.2-1.9.3-2.2.7-.2.2-.2.3-.4.6,0,.2,0,.4,0,.7s0,.3.2.4c0,.5.4.9,1,1.2.7.4,1.6,1,2.3,1.6.4.3.7.5,1.1.8-.3-2-.8-4-1.2-6ZM287.8,412.5h-8.8c-.8,2-1.8,4-2.3,5.7-.2.6-.3,1.1-.4,1.6,0,.4,0,.9,0,1.3-.2,1.9,0,3.7.3,5.4.2,1.2.7,2.4,1.1,3.5,0,.3.3.7.4.9.2.7.6,1.4,1,2.1,0,0,.1,0,.1.1v-13.8h9.4c-.2-2.2-.5-4.5-.8-6.8ZM287.8,412.5h-8.8c-.8,2-1.8,4-2.3,5.7-.2.6-.3,1.1-.4,1.6,0,.4,0,.9,0,1.3-.2,1.9,0,3.7.3,5.4.2,1.2.7,2.4,1.1,3.5,0,.3.3.7.4.9.2.7.6,1.4,1,2.1,0,0,.1,0,.1.1v-13.8h9.4c-.2-2.2-.5-4.5-.8-6.8ZM356.7,448.4c-.3-1.5-.8-2.9-1.3-4.3-.8-2.4-1.9-4.6-3.2-6.7-.7-1.1-1.3-2-2.1-3-3.6-4.9-8.2-8.9-13.4-12-1.2-.8-2.5-1.4-3.9-2.1-3-1.4-6-2.6-9.3-3.6-2.6-.8-5.3-1.5-8-2-4.4-.8-8.8-1.4-13-1.7-3.4-.3-6.8-.5-10.3-.5h-37.5c1.2,4.8,3.1,11,4,13.7,4.9,14,13.9,26.2,19.7,39.8.2.7.5,1.2.7,1.9v-48.5h14.1c4.9.1,9.3.8,13.3,2,3.6.9,6.9,2.4,9.8,4.3,2,1.2,3.9,2.7,5.6,4.4.4.4.8.8,1.2,1.2,2.1,2.3,3.9,4.9,5.3,8,.8,1.7,1.6,3.5,2.1,5.5,1.1,3.1,1.6,6.5,2,10.2.2,2,.3,4.2.3,6.4,0,14.2-3.3,24.8-10,31.9-6.6,7-16.9,10.5-30.7,10.5h-5.5c.2,2.3,0,4.6-.1,6.8h5.6c7.8,0,15.5-.5,23.3-1.5,7.7-1.1,14.8-3.2,21.1-6.6,6.3-3.5,11.5-8.4,15.6-14.9,3.9-6.6,5.9-15.3,5.9-26.2s-.5-9.2-1.4-13ZM272.8,468.4c-3.4-9.4-11.1-26.8-16.3-35.1-.3-.3-.4-1-1-1-.2,1.2-.5,2.5-.8,3.6v31.7c1.3,8.4,2.6,16.9,1.7,25.6-.3,3.2-.9,6.3-1.7,9.4v26.4c8.2-9.7,12.5-21.8,15.1-36.2.1-.7-.3-.8.9-.6,2,16.5-4.3,33.6-16.1,44.2,0,1.7-.2,3-.4,4.2-.3,2.1-1.3,3.6-3,4.7-.2.3-.6.4-1,.7-.3.2-.7.4-.9.7-1.1.7-1.5,1.2-1.5,1.9,0,1.4,1.1,2,3.3,1.9h.2c.3,0,.7,0,1.2,0,3.1-1.8,6.1-4.2,8.7-7,18.9-19.7,20.7-50.1,11.7-74.9Z"/>
        <path class="st0" d="M198.6,439.5c9.1-1,19.5-7.1,26.1-13.2.6-.5,4.5-4.2,4-4.7-18.6,12.4-52.4,23.3-61.2-5.8l7.7,4.5c13.1,5.5,31.1,2.4,43.5-4l7.7-5c-23.7,7.5-61,11.6-68.8-19.2l6.1,4.4c11,7.2,24.5,8.3,37.4,8.1l15.8-2.2c-20.8-1.3-48.1-3.5-60.6-22.6-5.1-7.8-7.2-17.8-5.7-26.9,5.4,4.9,10.6,10,16.7,14.1,15.2,10.2,32.6,13.9,49.2,20.9,12.2,5.1,29.1,14.5,20.5,30.3-7,12.7-33.1,31.4-47.6,22.3-.5-.3-.8,0-.6-1,3.1-.2,6.6.3,9.6,0Z"/>
        <path class="st0" d="M351.9,440c-.2.7-2,1.3-2.6,1.6-6.8,2.3-14.2,1-20.8-2.1-1.4-3-3.2-5.7-5.4-8,8.3,5.8,18.5,8.6,28.8,8.6Z"/>
        <path class="st0" d="M324.6,428.3c-3.8-1.7-7.2-4-11-5.7.9,1.1,1.8,2.1,2.8,3.1-2.9-2-6.2-3.5-9.8-4.4-2.1-3-3.5-5.7-4.1-8.3,4.3.3,8.6.9,13,1.7,2.7.5,5.4,1.2,8,2,2.9,1.4,6,2.6,9.3,3.6,1.3.7,2.6,1.3,3.9,2.1,5.3,3.1,9.8,7.1,13.4,12-8.7.4-17.7-2.6-25.4-6.2Z"/>
        <path class="st0" d="M272.8,468.4c-3.4-9.4-11.1-26.8-16.3-35.1-.3-.3-.4-1-1-1-.2,1.2-.5,2.5-.8,3.6-.5,2.1-1.1,4-1.3,6-1.2,8.7,0,17.1,1.3,25.7,1.3,8.4,2.6,16.9,1.7,25.6-.3,3.2-.9,6.3-1.7,9.4-8,31.4-38.6,51.4-71.3,39.1l-.2.8c3.6,2.4,7,5.2,10.9,7.2,17.7,9.7,41.1,11.3,58.3.5,3.1-1.8,6.1-4.2,8.7-7,18.9-19.7,20.7-50.1,11.7-74.9ZM254.6,536.5c-6.9,6.3-15.6,10.3-25.9,10.7l8.3-4c7.3-3.9,13.1-8.6,17.6-14.1,8.2-9.7,12.5-21.8,15.1-36.2.1-.7-.3-.8.9-.6,2,16.5-4.3,33.6-16.1,44.2Z"/>
        <path class="st0" d="M279.1,433c0,0,0,0,0,.2v34.7c-.2-.7-.5-1.2-.7-1.9-5.8-13.6-14.7-25.8-19.7-39.8-.9-2.7-2.8-8.8-4-13.7-.6-2.5-.9-4.5-1-5.8,0-4,3-6.8,7.1-5.3,1.1.5,4.9,4.6,5.3,4.6,3.3-3.6,6.4-6.8,11.7-4.5,4.6,1.9,3.1,6.5,1.2,11-.8,2.1-1.8,4-2.3,5.8-.2.6-.3,1.1-.4,1.6,0,.4,0,.9,0,1.3-.2,1.9,0,3.7.3,5.4.2,1.2.7,2.4,1.2,3.5,0,.3.2.7.4.9.2.7.6,1.4,1,2.1Z"/>
        <path class="st0" d="M292.2,503.9c-.3,2.3-.7,4.6-1.1,6.8-2.1,12.6-5.4,24.5-9.7,33.5-1,2.1-2.1,4-3.1,5.8,0,0,0,.2-.2.2-14,22-41.3,27.4-63.2,13.4l.2-.9c20.3,5.9,41.3,2.2,55.5-12.6,1.7-1.8,3.4-3.9,4.9-6,1.4-2,2.7-4.1,3.8-6.3h0c4.4-8.4,6.7-17.7,7.2-27.2.2-2.2.2-4.5,0-6.8h5.5Z"/>
        <path class="st0" d="M284.7,414.2l2.9,5.2h-2.7c-.4-1.7-.7-3.4-.7-5.1,0-.9.2-1.2.6,0Z"/>
        <path class="st0" d="M292.2,412.5c0,2,.3,4.4,1,6.8h-4.6c-.2-2.2-.5-4.5-.7-6.8,0-.6,0-1.2-.2-1.8-.2-4.4.7-12.7-2.1-16.1-3.7-4.4-15.8-2.1-12.5-12.3,1.6-.2,2.9,1.3,4.4.7,3-1.4,7-14.7,3.8-17.7-2.3.9-4,2.8-6.3,3.5-2.1.7-9.6.8-10.2,1.9-1.4,2.4,2.6,3.5,2.5,6.5,0,1.7-2.6,9.7-3.5,11.3-3.4,5.4-11.8,3-13.4,9.8-1.1,4.7-.2,9.6.8,14.2.4,2.1.9,4,1.2,6h0c.8,4.4,1.2,8.5-.5,12.2-3.6,8.2-9.6,11.8-14.7,18-1,1.2-1.7,3.4-2.9,4.5-1.4,1.5-10.8,7.1-12.4,5.9,1.2-6.4,7.3-8.5,11.4-12.5,6.2-6,13.8-19.7,14.5-28.3,0-1.1,0-2.2,0-3.5,0-.3,0-.7,0-1.1-.7-7.8-3.3-18.4,3-22.4,2.9-1.9,6.9-1.5,9.6-3.9l-5.4-.8-3-1.9c7.1-3,4.9-7.7,5.4-13.8.7-7.8,5.1-16.1,14-16,5.8.2,13.9,5.6,16.6,10.8,4,7.7-3.4,10.5-2,17,.9,4.3,6,5.9,8.4,9.1,5.2,6.9-1.9,13.3-2.2,20.1v.5Z"/>
        <path class="st0" d="M184.2,448.3c-.9-.9-4.1-5.4-3.3-6.5,14,8.1,29.6,5.4,42.9-2.7-3.5,18.5-27.4,22-39.6,9.2Z"/>
        <path class="st0" d="M356.7,448.4c-6.1,6.7-15.9,8.9-24.2,6.6-.3-3.6-.9-7-2-10.1,7.2,2.1,15,2.4,22.3.2.9-.2,1.7-.6,2.6-1,.5,1.4,1,2.8,1.3,4.4Z"/>
      </g>
    </g>
    <g>
      <path class="st0" d="M686.6,395.2c2.6,0,5.1.5,7.3,1.4,2.2,1,4.1,2.2,5.7,3.9s2.9,3.6,3.8,5.8c.9,2.2,1.4,4.5,1.4,7.1s-.5,4.9-1.4,7.1-2.2,4.1-3.8,5.8-3.5,2.9-5.7,3.9c-2.2.9-4.7,1.4-7.3,1.4s-5-.5-7.2-1.4c-2.2-1-4.1-2.2-5.8-3.9s-2.9-3.6-3.8-5.8c-.9-2.2-1.4-4.6-1.4-7.1s.5-4.9,1.4-7.1c.9-2.2,2.2-4.1,3.8-5.8s3.5-2.9,5.8-3.9c2.2-1,4.6-1.4,7.2-1.4ZM690.5,429.7c1.7-.4,3.2-1.2,4.4-2.3,1.2-1.1,2.1-2.6,2.7-4.2.6-1.7.9-3.5.9-5.6,0-2.1-.2-4.2-.7-6.4-.5-2-1.1-3.9-1.9-5.6-.8-1.7-1.8-3.3-2.9-4.5-1.1-1.3-2.4-2.3-3.7-3-1.4-.7-2.9-1.1-4.4-1.1s-1.3,0-1.9.2c-1.7.4-3.2,1.2-4.4,2.3-1.2,1.1-2.1,2.6-2.7,4.2-.6,1.7-.9,3.6-.9,5.6,0,2.1.2,4.2.7,6.4.5,2,1.1,3.9,1.9,5.6.8,1.7,1.8,3.2,2.9,4.5,1.1,1.3,2.4,2.3,3.7,3,1.4.7,2.9,1.1,4.4,1.1s1.3,0,1.9-.2Z"/>
      <path class="st0" d="M719.7,395.9c2,0,3.9.2,5.9.6,2,.4,3.8,1,5.4,2,1.6.9,2.9,2.2,3.9,3.8,1,1.6,1.5,3.6,1.5,6.1s-.5,5-1.5,6.6-2.3,2.9-3.9,3.8c-1.6.9-3.4,1.4-5.4,1.7-2,.3-4,.4-5.9.4h-3.3v5.9c0,.8,0,1.4.2,1.9.1.5.5.8,1,1,.3.1.5.2.6.3.1,0,.2.2.2.4,0,.4-.3.5-.9.5-.5,0-1,0-1.7,0-.7,0-1.5,0-2.5,0s-1.7,0-2.3,0c-.7,0-1.2,0-1.6,0h0c-.5,0-.8-.1-.8-.5s.1-.3.4-.5c0,0,.1-.1.2-.2s.2-.1.2-.2c.4-.3.7-.7.7-1.2,0-.5.1-1.3.1-2.2v-25.6c0-1,0-1.8-.1-2.3,0-.5-.3-.9-.7-1.1-.2-.2-.4-.3-.6-.4-.2-.1-.3-.2-.3-.4s0-.2.1-.3c0,0,.3-.1.6-.2h10.6ZM719.7,419.1c3.5,0,6.1-.9,7.8-2.7,1.7-1.8,2.5-4.5,2.5-8.1s-.9-6.1-2.8-7.9c-1.8-1.8-4.4-2.7-7.6-2.7h-3.3v21.5h3.3Z"/>
      <path class="st0" d="M740.5,431.4c-.5,0-1,0-1.5-.3-.5-.2-.8-.5-1.2-.8-.3-.3-.6-.7-.8-1.2-.2-.5-.3-1-.3-1.5s0-1,.3-1.5c.2-.5.5-.9.8-1.2.3-.3.7-.6,1.2-.8.5-.2.9-.3,1.5-.3,1,0,1.9.4,2.7,1.1.8.7,1.1,1.6,1.1,2.7s-.4,1.9-1.1,2.7-1.7,1.1-2.7,1.1Z"/>
      <path class="st0" d="M776.3,395.9c2.6,0,5.1.3,7.3,1,2.2.7,4.2,1.7,5.8,3.2,1.6,1.4,2.9,3.2,3.8,5.4.9,2.2,1.4,4.8,1.4,7.8s-.5,6-1.5,8.3c-1,2.3-2.3,4.1-4,5.5-1.7,1.4-3.6,2.4-5.8,3s-4.6.9-7.1.9h-12.3c-.6,0-.9-.2-.9-.5s0-.3.3-.4c.2-.1.4-.2.6-.4.4-.3.7-.7.7-1.2,0-.5.1-1.3.1-2.2v-25.6c0-1,0-1.8-.1-2.3,0-.5-.3-.9-.7-1.1-.2-.2-.4-.3-.6-.4-.2-.1-.3-.2-.3-.4s0-.3.2-.4c.1,0,.4-.1.7-.1h12.3ZM776.3,429.2c1.8,0,3.4-.3,4.9-.9,1.5-.6,2.7-1.6,3.7-2.9,1-1.3,1.8-2.9,2.4-5,.6-2,.8-4.4.8-7.1s-.3-5.3-.8-7.3c-.6-2-1.4-3.6-2.4-4.8s-2.3-2.1-3.7-2.7c-1.5-.5-3.1-.8-4.9-.8h-5.2v30c0,.7.1,1.2.3,1.3.2.2.6.3,1.3.3h3.6Z"/>
      <path class="st0" d="M825.5,429.7c.5.2.8.4.8.7s-.3.5-.8.5c-.4,0-1,0-1.9,0-.9,0-1.7,0-2.7,0s-1.6,0-2,0c-.4,0-.8,0-1.2,0-.5,0-.8-.1-.8-.5s0-.2.2-.3.3-.2.5-.4c.2-.3.3-.6.1-1.1-.1-.5-.3-1.1-.6-1.8l-3.2-8.6c-.4,0-.7,0-1,0h-6.6v8.6c0,.8,0,1.4.1,1.9,0,.5.4.8.8,1,.3.2.5.3.6.4.1,0,.2.2.2.4,0,.4-.3.5-.8.5-.4,0-.9,0-1.6,0-.7,0-1.5,0-2.4,0s-1.7,0-2.4,0c-.7,0-1.2,0-1.6,0h0c-.4,0-.6,0-.7,0-.1,0-.2-.2-.2-.4s.2-.4.5-.5c0,0,.2-.2.4-.3.4-.3.7-.7.7-1.2,0-.5,0-1.3,0-2.2v-25.6c0-1,0-1.8-.1-2.3,0-.5-.3-.9-.7-1.1-.2-.2-.4-.3-.6-.4-.2-.1-.3-.2-.3-.4,0-.3.1-.4.4-.4h0s10.6,0,10.6,0c2.1,0,4.2.2,6.2.5s3.8.9,5.4,1.7c1.6.8,2.8,2,3.8,3.4s1.4,3.3,1.4,5.6-.2,2.9-.6,4c-.4,1.1-.9,2.1-1.5,2.9-.7.8-1.4,1.5-2.3,2-.9.5-1.8.9-2.7,1.2l4,9.5c.4,1,.8,1.7,1.2,2.1.4.4.8.7,1.3.9ZM811.9,416.4c1.1,0,2.2-.2,3.1-.6.9-.4,1.8-.9,2.5-1.7.7-.8,1.2-1.7,1.6-2.9.4-1.2.6-2.6.6-4.1,0-3.1-.8-5.4-2.5-7.1s-4.3-2.5-7.9-2.5h-2.9v18.8h5.6Z"/>
      <path class="st0" d="M834.1,431.4c-.5,0-1,0-1.5-.3-.5-.2-.8-.5-1.2-.8-.3-.3-.6-.7-.8-1.2-.2-.5-.3-1-.3-1.5s0-1,.3-1.5c.2-.5.5-.9.8-1.2.3-.3.7-.6,1.2-.8.5-.2.9-.3,1.5-.3,1,0,1.9.4,2.7,1.1.8.7,1.1,1.6,1.1,2.7s-.4,1.9-1.1,2.7-1.7,1.1-2.7,1.1Z"/>
    </g>
    <g id="OzhLX5.tif">
      <g>
        <path class="st0" d="M204.2,537.4c.1.5-.4.4-.7.5-3.9,1.4-10.8,2.1-13.6,5.1-2.7,2.8-3.4,9.7-4.8,13.4-.5,0-.6-.5-.7-.9-1.5-3.5-2.1-10.5-4.9-13.1-2.9-2.7-10.2-3-13.8-4.9,3.7-1.9,10.9-2.2,13.9-5.1,2.7-2.6,3.3-9.4,4.7-12.9.1-.4.3-.8.7-.9,1.5,4,2.2,11.7,5.6,14.3,3.2,2.4,9.6,3,13.4,4.4Z"/>
        <path class="st0" d="M208.4,560.3c.1.9,0,.6-.5.7-2.3.7-7.8,1.7-9.4,3.3-1.6,1.7-2.4,7-3.2,9.4-.9.1-.6,0-.7-.5-.7-2.4-1.6-7.4-3.3-9s-7.1-2.5-9.7-3.2c0-.9,0-.6.5-.7,2.5-.7,7.7-1.6,9.4-3.3s2.1-7.1,3.7-9.7c1,2.5,1.6,8,3.5,9.9,1.8,1.7,7.2,2.5,9.7,3.2Z"/>
        <path class="st0" d="M208.1,523.3c0,.9,0,.6-.5.7-1.7.5-4.8.9-6,2.1s-1.5,4.6-2.3,6.4c-.5.1-.4-.4-.5-.7-.7-1.6-1-4.7-2.3-5.8-1.2-1.1-4.7-1.7-6.4-1.9-.1-.9,0-.6.5-.7,1.7-.5,5-.9,6.2-2.3,1.2-1.3,1.4-4.5,2.1-6.2.5-.1.4.4.5.7.6,1.6.9,4.5,2.1,5.7s4.8,1.8,6.5,2.1Z"/>
      </g>
    </g>
    <g>
      <g>
        <path class="st0" d="M241.7,646.9l-6.7-6.7-2,1.9v4.7h-1.3v-14.8h1.3v8.3l8.5-8.3h1.7l-7.3,7.2,7.5,7.6h-1.8Z"/>
        <path class="st0" d="M260,646.9l-1.7-4h-7.8l-1.7,4h-1.4l6.2-14.8h1.6l6.2,14.8h-1.5ZM251.1,641.6h6.8l-3.4-8.1-3.4,8.1Z"/>
        <path class="st0" d="M273,632.1c1.4,0,2.7.3,3.8,1,1.1.6,2,1.5,2.7,2.6.6,1.1,1,2.4,1,3.8s-.2,2-.6,2.9c-.4.9-.9,1.7-1.6,2.3-.7.7-1.4,1.2-2.4,1.5-.9.4-1.9.6-2.9.6h-5.6v-14.8h5.6ZM273,645.6c1.7,0,3.2-.6,4.4-1.8s1.7-2.6,1.7-4.4-.3-2.2-.8-3.1c-.5-.9-1.3-1.7-2.2-2.2s-2-.8-3.1-.8h-4.3v12.3h4.3Z"/>
        <path class="st0" d="M286.9,646.9v-14.8h1.3v14.8h-1.3Z"/>
        <path class="st0" d="M306.2,632.1h1.3v14.8h-1.4l-9.4-12.7v12.7h-1.3v-14.8h1.4l9.4,12.7v-12.7Z"/>
        <path class="st0" d="M334.3,632.1h1.3v14.8h-1.3v-6.8h-9.3v6.8h-1.3v-14.8h1.3v6.7h9.3v-6.7Z"/>
        <path class="st0" d="M354.1,646.9l-1.7-4h-7.8l-1.7,4h-1.4l6.2-14.8h1.6l6.2,14.8h-1.5ZM345.2,641.6h6.8l-3.4-8.1-3.4,8.1Z"/>
        <path class="st0" d="M365.7,647.1c-1.1,0-2.1-.2-3.1-.6-1-.4-1.8-1-2.5-1.7l.7-1c.6.6,1.3,1.1,2.1,1.5s1.8.6,2.7.6,2.1-.3,2.8-.8,1.1-1.2,1.1-2,0-.6-.2-.9c-.1-.3-.3-.5-.4-.7-.2-.2-.4-.4-.7-.5-.3-.2-.5-.3-.7-.4s-.5-.2-.8-.3c-.3,0-.6-.2-.7-.2-.2,0-.4,0-.7-.1-.5-.1-1-.2-1.4-.4-.4-.1-.9-.3-1.3-.6-.4-.2-.8-.5-1.1-.8-.3-.3-.6-.6-.8-1.1-.2-.4-.3-.9-.3-1.4,0-1.2.5-2.1,1.4-2.9.9-.7,2.2-1.1,3.6-1.1s1.9.2,2.7.5c.8.3,1.5.8,2,1.4l-.7,1c-.4-.5-.9-.9-1.7-1.2s-1.5-.5-2.4-.5-1.9.3-2.6.8c-.7.5-1,1.2-1,1.9,0,1.5,1.3,2.4,3.9,3,.2,0,.5.1.7.2.2,0,.5.1.8.2.3,0,.6.2.9.3.3.1.6.3.9.4s.6.3.8.6.4.5.6.7c.2.3.3.5.4.9.1.3.2.7.2,1.1,0,.8-.2,1.5-.7,2.1s-1.1,1.1-1.9,1.5c-.8.3-1.7.5-2.7.5Z"/>
        <path class="st0" d="M386.6,632.1v1.2h-5v13.5h-1.3v-13.5h-5v-1.2h11.3Z"/>
        <path class="st0" d="M401.8,646.9l-1.7-4h-7.8l-1.7,4h-1.4l6.2-14.8h1.6l6.2,14.8h-1.5ZM392.9,641.6h6.8l-3.4-8.1-3.4,8.1Z"/>
        <path class="st0" d="M410.5,645.6h7.7v1.2h-9v-14.8h1.3v13.5Z"/>
        <path class="st0" d="M424.2,646.9v-14.8h1.3v14.8h-1.3Z"/>
        <path class="st0" d="M442.7,646.9l-6.7-6.7-2,1.9v4.7h-1.3v-14.8h1.3v8.3l8.5-8.3h1.7l-7.3,7.2,7.5,7.6h-1.8Z"/>
        <path class="st0" d="M451,645.6h7.7v1.2h-9v-14.8h1.3v13.5Z"/>
        <path class="st0" d="M476,646.9l-1.7-4h-7.8l-1.7,4h-1.4l6.2-14.8h1.6l6.2,14.8h-1.5ZM467.1,641.6h6.8l-3.4-8.1-3.4,8.1Z"/>
        <path class="st0" d="M492.2,646.9l-5.1-6.2h-2.4v6.2h-1.3v-14.8h5.8c1.2,0,2.3.4,3.1,1.2.8.8,1.2,1.8,1.2,3s-.4,2.2-1.2,3c-.8.8-1.9,1.2-3.1,1.2h-.5l5.1,6.2h-1.6ZM484.7,633.3v6.1h4.5c.9,0,1.6-.3,2.2-.9.6-.6.9-1.3.9-2.2s-.3-1.6-.9-2.2c-.6-.6-1.3-.9-2.2-.9h-4.5Z"/>
        <path class="st0" d="M499.9,646.9v-14.8h1.3v14.8h-1.3Z"/>
        <path class="st0" d="M528.6,632.1h1.5l-6.2,14.8h-1.4l-6.2-14.8h1.5l5.5,13.1,5.5-13.1Z"/>
        <path class="st0" d="M537.2,645.6h8.3v1.2h-9.6v-14.8h9.5v1.2h-8.2v5.5h7.5v1.2h-7.5v5.6Z"/>
        <path class="st0" d="M566.6,632.1c1.4,0,2.7.3,3.8,1,1.1.6,2,1.5,2.7,2.6.6,1.1,1,2.4,1,3.8s-.2,2-.6,2.9c-.4.9-.9,1.7-1.6,2.3-.7.7-1.4,1.2-2.4,1.5-.9.4-1.9.6-2.9.6h-5.6v-14.8h5.6ZM566.6,645.6c1.7,0,3.2-.6,4.4-1.8,1.2-1.2,1.7-2.6,1.7-4.4s-.3-2.2-.8-3.1c-.5-.9-1.3-1.7-2.2-2.2-.9-.5-2-.8-3.1-.8h-4.3v12.3h4.3Z"/>
        <path class="st0" d="M587.3,647.1c-1.1,0-2.1-.2-3.1-.6-1-.4-1.8-.9-2.5-1.6-.7-.7-1.2-1.5-1.6-2.4-.4-.9-.6-2-.6-3s.3-2.7,1-3.9c.7-1.2,1.6-2.1,2.8-2.7,1.2-.7,2.5-1,3.9-1s2.7.3,3.9,1c1.2.7,2.1,1.6,2.8,2.7.7,1.2,1,2.5,1,3.9s-.2,2.1-.6,3c-.4.9-.9,1.8-1.6,2.4-.7.7-1.5,1.2-2.5,1.6-1,.4-2,.6-3,.6ZM587.3,645.8c1.2,0,2.3-.3,3.2-.8,1-.6,1.7-1.3,2.3-2.3.6-1,.8-2.1.8-3.3s-.3-2.3-.8-3.2-1.3-1.7-2.3-2.3c-1-.6-2-.8-3.2-.8s-2.3.3-3.2.8-1.7,1.3-2.3,2.3-.8,2.1-.8,3.2.2,1.7.5,2.5c.3.8.8,1.5,1.3,2,.6.6,1.2,1,2,1.3.8.3,1.6.5,2.5.5Z"/>
        <path class="st0" d="M608.8,639.3h6.8v.4c0,1.4-.3,2.7-1,3.8-.6,1.1-1.5,2-2.7,2.7-1.1.6-2.4,1-3.8,1s-2.1-.2-3-.6-1.8-.9-2.4-1.6c-.7-.7-1.2-1.5-1.6-2.4-.4-.9-.6-2-.6-3s.3-2.7,1-3.9c.7-1.2,1.6-2.1,2.8-2.7,1.2-.7,2.5-1,3.9-1s2.5.3,3.6.9,2,1.3,2.7,2.3l-1,.8c-.6-.8-1.3-1.5-2.2-2-.9-.5-1.9-.7-3-.7s-2.3.3-3.2.8c-1,.6-1.7,1.3-2.3,2.3-.6,1-.8,2.1-.8,3.2s.2,1.7.5,2.5.8,1.5,1.3,2c.6.6,1.2,1,2,1.3s1.6.5,2.5.5c1.6,0,3-.5,4.2-1.5,1.1-1,1.8-2.3,1.9-3.9h-5.4v-1.2ZM608.2,630.7c-.8,0-1.4-.3-1.9-.8-.5-.5-.8-1.1-.8-1.9h1c0,.5.2.9.5,1.2.3.3.7.5,1.2.5s.9-.2,1.2-.5c.3-.3.5-.7.5-1.2h1c0,.7-.3,1.4-.8,1.9-.5.5-1.2.8-1.9.8Z"/>
        <path class="st0" d="M627.5,647.1c-1.7,0-3.1-.6-4.3-1.7-1.1-1.1-1.7-2.5-1.7-4.2v-9.1h1.3v9.1c0,1.3.4,2.4,1.3,3.3s2,1.3,3.3,1.3,2.4-.4,3.3-1.3,1.3-2,1.3-3.3v-9.1h1.3v9.1c0,1.1-.3,2.1-.8,3-.5.9-1.2,1.6-2.1,2.1-.9.5-1.9.8-3,.8Z"/>
        <path class="st0" d="M653.1,632.1h1.7v14.8h-1.3v-12.8l-5.6,9.4h-.7l-5.6-9.4v12.8h-1.3v-14.8h1.7l5.6,9.4,5.6-9.4Z"/>
        <path class="st0" d="M676.6,647.1c-1.7,0-3.1-.6-4.3-1.7-1.1-1.1-1.7-2.5-1.7-4.2v-9.1h1.3v9.1c0,1.3.4,2.4,1.3,3.3s2,1.3,3.3,1.3,2.4-.4,3.3-1.3,1.3-2,1.3-3.3v-9.1h1.3v9.1c0,1.1-.3,2.1-.8,3-.5.9-1.2,1.6-2.1,2.1-.9.5-1.9.8-3,.8Z"/>
        <path class="st0" d="M690.1,645.6h9.4v1.2h-11.2v-.9l9.3-12.6h-9.2v-1.2h11v.9l-9.3,12.6Z"/>
        <path class="st0" d="M718.7,632.1h1.7v14.8h-1.3v-12.8l-5.6,9.4h-.7l-5.6-9.4v12.8h-1.3v-14.8h1.7l5.6,9.4,5.6-9.4Z"/>
        <path class="st0" d="M738.8,646.9l-1.7-4h-7.8l-1.7,4h-1.4l6.2-14.8h1.6l6.2,14.8h-1.5ZM729.9,641.6h6.8l-3.4-8.1-3.4,8.1Z"/>
        <path class="st0" d="M757,632.1h1.3v14.8h-1.4l-9.4-12.7v12.7h-1.3v-14.8h1.4l9.4,12.7v-12.7Z"/>
        <path class="st0" d="M765.5,646.9v-14.8h1.3v14.8h-1.3Z"/>
      </g>
      <line class="st0" x1="221.7" y1="640.2" x2="150.3" y2="640.2"/>
      <line class="st0" x1="849.7" y1="640.2" x2="778.3" y2="640.2"/>
    </g>
    <g>
      <path class="st0" d="M377.1,547.8c3.5-7.5-3.5-4.9-4.4-1.3-.9,3,3.1,3.5,4.4,1.3Z"/>
      <path class="st0" d="M387.9,547.8c3.5-7.5-3.5-4.9-4.4-1.3-.9,3,3.1,3.5,4.4,1.3Z"/>
      <path class="st0" d="M482.6,558.7c-3,3.3-12,14.6-19.2,16.3-2.1.4-4.8.2-4.8-2.3,0-3.7,6.7-9.6,1.8-12.8-1.5-.9-5.5-2-5.7-3.4-.2-.4,2.2-1.1,1.9-2.4-.2-1.3-2.1-1.9-3.6-1.1-2.1,1.3-2.7,3.4-2.4,4.8,0,.3.2.5.3.8-1.3,1.8-15.4,13.5-22,10.7-4.3-1.7-2.8-7.5-1.4-10.7,4.9.2,9.8-2.3,9.4-5.1-.2-1.2-1.1-2.3-3.1-2.8-4.1-.9-8,2.8-10,5.7-.5.7-1,1.5-1.4,2.4-1.8,2.1-15.4,13.3-21.9,10.6-1.7-.7-2.7-2.3-2.9-4-.4-5,3.8-12.8,8.3-14.5,1.1-.4,2.1,0,2.3,1.7-.2,2.8,2.9,3.2,2.9.7-.6-2.8-2.2-4.2-4.2-4.2-5.6.2-10.4,4.6-12.9,9.5-4.4,1.1-10.9,1.6-15.5.9-1.5-6.5-8-.2-1.4,1.9-.2,1.7-1.7,6.2-3.6,8.1-1.5,1.5-2.7,1-2.9-.9-.2-4.7,2.7-16.7,9.1-13.5,1.9,1.4,4.4-.5,2.5-1.8-5.7-1.6-11.1,1-14.3,5.4-6.3,3.2-13.1,7.3-19.5,10.8,4.5-10.8,8-24.7,8.7-32.4.2-6.3-3.9-5.1-3.5-.8-1.3,12.4-27.1,30-41.8,29.3-10.2-.4-15.5-8.1-4.9-25.9,8.1-13.8,24.1-24.6,32.9-25.3,11.6-.9,9.9,16.3-.5,22.4-3.9,2.4.1,7.4,4.2,2.5,6.9-8.4,10.2-30.1-2.7-29.2-9.5.6-23.8,11.6-33.3,24.5-11.4,15.1-11.2,27.8-4.4,33.5,14.2,11.9,47.9-13.8,51.4-28.6-1.9,12.9-5.3,20.6-10.9,32.9-14.6,8.4-27.4,17.3-35.4,27.2-13.3,16.7-6.5,25.3,4.4,21.9,7.4-2.3,15.8-10.2,23-24,4.1-7.8,8.6-16.5,11.8-24.8,5.8-3.4,12.2-7,18.6-10.3-1.1,2.9-1.6,6.4-.3,9,1.7,3.5,6.5,2.9,8.9.6,2.7-2.4,4.2-7.1,4.2-10.2,4.3.6,9.7.3,14-.4-.6,1.7-.9,3.3-.8,4.8.2,2.6,1.4,4.2,3.2,5.1-.4,2.9,3.1,3.8,3.5,5.4.5,2-2.6,1.6-2.9.2-.6-1.5-2.5-1.2-2.1.3,1.3,3.8,7.4,3.8,7.4,0s-.5-2.2-1.7-2.8c-1.2-.6-1.6-1.1-1.7-2.2,7.4,1.4,17-3.7,23-8.7-.8,3.9.4,7.5,5.3,8.7,8.9,1.9,21.1-5.8,26.3-11.6,1.5,1.2,3.7,1.8,5.5,1.5-2.4,3.1-4.7,9.3-2,13.1,1.8,2.3,4.7,2.8,7.3,2.4,8.7-1.5,18.3-13.2,21.5-17.3,2.2-2.3,0-3.2-1.7-1.4ZM432.2,552.9c.6,1.4-1.7,4.2-3.9,3.9,2.3-4.3,3.5-4.7,3.9-3.9ZM327.6,599.4c-8.5,12.4-18.6,18.3-21.7,16.6-1.9-1-1.7-5.6,4.3-13.3,7-8.9,18.5-18.9,31.3-26.7-4.1,8-9,16.3-14,23.4Z"/>
      <path class="st0" d="M561,512.1c3.5-7.5-3.5-4.9-4.4-1.3-.9,3,3.1,3.5,4.4,1.3Z"/>
      <path class="st0" d="M550.2,512.1c3.5-7.5-3.5-4.9-4.4-1.3-.9,3,3.1,3.5,4.4,1.3Z"/>
      <path class="st0" d="M544.4,584c5-27.4,21-59.4,21.2-60.6,3.7-6.1-2.4-7.8-4.7-3-9.1,18.6-12.4,39.7-22.1,57.9-7.1,13.3-14.7,22.7-23,22.5-21.4-.7,2.1-87,21.2-81.6,2.9.9,2.1-4.5-2-3.9-18.5,2.3-49.6,92.3-20.3,89.7,11.6-1,21.6-16.2,30.3-35-.9,4-1.7,7.8-2.5,11.9-2.2,10.6-2.7,18.8-1,22.3,2.6,5.6,8,2.5,4.3-1.1-2.5-4.3-2.9-10.8-1.4-19Z"/>
      <path class="st0" d="M671.1,558.7c-1.7,2.4-3.3,5.2-4.9,8-6.7,11.3-17.4,25.4-22.9,23.9-8.1-2.1.9-28.3,3.5-33.6,7.1-9.3,18.4-24.7,20.1-34.3,1.3-7-4-7.3-7.6-3.7-5.9,6.1-12.9,23.1-17.7,39.7,0,0,0,0,0,0-3.9,4.7-13.9,10.8-19.1,9.7-3-.7-4.5-3.8-2.1-11.2.8-2.4-2.2-3.5-4.8-1.1-1.1,1.1-10.2,11.2-11,9.9-.8-1,.3-3.9.8-4.9,2-4.9,7.2-10,11.6-9.6,1.7.2,3.3,1.1,4.3,3,1,2.6,4.1,2,3-.4-1.2-2.6-3.8-3.8-6.6-4.2-6.9-1-13.8,2.9-17.1,8.8,0,0,0,0,0,0-3.8,4.6-14,14.3-19.1,13-6.6-1.5.9-11.5-1.5-14.9-1.1-1.5-2.6-1.3-4.3,0-5.1,3.8-11.7,16.8-12.4,17.6-.7.9-.6-.3-.6-.7.3-4.9,5.7-15.8,7-20.2.8-2.4-2.5-3.8-4.8-1.1-3.1,3.7-6,14.7-5.4,20.3.2,2,.8,5,3.1,5s1.7-.7,2.5-1.7c1.5-2.9,9.7-16.2,10.1-15.4.2.2,0,.6-.2,1.1-1.7,5.2-.5,11.6,5.4,12.2,6.3.7,13.3-4.9,18.4-10,0,.2-.1.4-.1.5-.3,2.2.2,4.6,1.9,5.5,5.8,3,12.9-9.5,15.2-11.4-3,5.9-.8,11.5,5.7,12.1,6.6.7,13.9-3.1,18.9-7.6,0,.2,0,.3-.1.5-3.2,11.7-6.2,27.3,2.5,28.4,6.4.7,17.7-11.5,24.5-22.8,1.9-3.1,3.7-6.1,5.5-8.9,1.9-2.6,0-4.1-1.6-1.5ZM658.1,529.8c4.9-7.8,7.3-7.9,2.8.9-3.1,6.3-7.8,13.6-11.9,19.4,2.5-7.3,5.6-14.8,9.1-20.4Z"/>
    </g>
  </g>
</svg>